<?xml version="1.0" encoding="utf-8"?><!-- Uploaded to: SVG Repo, www.svgrepo.com, Generator: SVG Repo Mixer Tools -->
<svg fill="#000000" width="800px" height="800px" viewBox="0 0 24 24" id="folder-add" data-name="Flat Line" xmlns="http://www.w3.org/2000/svg" class="icon flat-line"><path id="secondary" d="M21,7V9.6a8.65,8.65,0,0,0-4.72-1.38A8.78,8.78,0,0,0,7.5,17a8.26,8.26,0,0,0,.06,1H4a1,1,0,0,1-1-1V4A1,1,0,0,1,4,3H9a1,1,0,0,1,.71.29l2.41,2.42a1,1,0,0,0,.71.29H20A1,1,0,0,1,21,7Z" style="fill: rgb(44, 169, 188); stroke-width: 2;"></path><path id="primary" d="M16,21V13m-4,4h8" style="fill: none; stroke: rgb(0, 0, 0); stroke-linecap: round; stroke-linejoin: round; stroke-width: 2;"></path><path id="primary-2" data-name="primary" d="M7,18H4a1,1,0,0,1-1-1V4A1,1,0,0,1,4,3H9a1,1,0,0,1,.71.29l2.41,2.42a1,1,0,0,0,.71.29H20a1,1,0,0,1,1,1v3" style="fill: none; stroke: rgb(0, 0, 0); stroke-linecap: round; stroke-linejoin: round; stroke-width: 2;"></path></svg>