<svg xmlns="http://www.w3.org/2000/svg" width="176" height="41" viewBox="0 0 176 41" fill="none" class="nav-menu-logo">
  <mask id="mask0_37_1679" maskUnits="userSpaceOnUse" x="0" y="0" width="176" height="41" style="mask-type: luminance;">
    <path d="M175.137 0.457031H0V40.543H175.137V0.457031Z" fill="white"/>
  </mask>
  <g mask="url(#mask0_37_1679)">
    <path d="M59.5269 7.73593C56.7049 7.73593 53.9189 11.5849 53.9189 14.5539C53.9189 15.7629 54.6189 16.3129 55.3849 16.3129C55.8619 16.3129 56.3019 16.0199 56.5579 16.0199C56.8139 16.0199 56.9249 16.1669 56.9249 16.4199C56.9249 17.5199 54.9459 20.1589 52.2699 20.1589C50.0699 20.1589 48.4209 18.5459 48.4209 15.9799C48.4209 9.74793 54.7209 5.67993 60.3709 5.67993C63.8899 5.67993 66.1629 7.51293 66.1629 10.5549C66.1629 15.7599 63.1199 20.4549 63.1199 24.0809C63.0982 24.2797 63.1177 24.4808 63.1771 24.6717C63.2365 24.8626 63.3347 25.0393 63.4653 25.1906C63.596 25.3419 63.7565 25.4647 63.9367 25.5513C64.1169 25.6379 64.3131 25.6865 64.5129 25.6939C65.7589 25.6939 67.1519 24.7039 68.4719 22.5049C69.8021 19.9918 70.6712 17.2606 71.0379 14.4409C71.0379 13.9279 70.9649 13.7809 70.9649 13.1949C70.9649 12.0589 74.2649 10.9589 75.0339 10.9589C75.9509 10.9589 76.3539 11.3589 76.3539 12.3149C76.3539 14.8439 73.7879 21.2229 73.7879 23.8619C73.7879 25.0349 74.2639 25.6949 75.2879 25.6949C77.1569 25.6949 78.6969 23.4589 80.0879 20.3429C81.1362 17.8481 81.6721 15.168 81.6639 12.4619C81.6639 9.82293 80.4909 8.94293 79.2809 8.94293C78.9139 8.94293 78.6579 8.75993 78.6579 8.39293C78.6579 7.58693 80.3809 5.68093 82.7639 5.68093C85.2569 5.68093 86.3199 7.18093 86.3199 9.49293C86.3199 12.5359 84.7069 17.3739 82.5809 21.6629C80.3079 26.3549 76.7519 30.3499 73.3069 30.3499C70.6679 30.3499 69.0919 28.4439 68.7619 25.9149C67.5159 27.5639 64.8399 30.3499 61.1739 30.3499C58.3879 30.3499 57.0319 28.4439 57.0319 25.9879C57.0319 20.8879 61.1379 15.7609 61.1379 9.27293C61.1596 9.05893 61.1321 8.84281 61.0575 8.64105C60.983 8.43928 60.8634 8.25719 60.7078 8.10866C60.5523 7.96013 60.3648 7.84907 60.1598 7.78396C59.9548 7.71885 59.7377 7.70139 59.5249 7.73293" fill="#00B4D2"/>
    <path d="M94.7531 30.1691C94.1393 30.1781 93.5378 29.9959 93.0322 29.6478C92.5265 29.2996 92.1417 28.8028 91.9311 28.2261C90.6727 29.4044 89.0344 30.0936 87.3121 30.1691C85.1491 30.1691 83.3901 28.7031 83.3901 25.8801C83.3901 22.2511 85.5901 18.5491 90.8311 18.5491C92.7741 18.5491 93.3241 19.2491 93.9101 19.2491C94.5331 19.2491 96.1101 18.5491 96.9531 18.5491C97.0278 18.5384 97.104 18.5452 97.1757 18.5691C97.2473 18.593 97.3123 18.6332 97.3657 18.6865C97.4191 18.7399 97.4593 18.805 97.4831 18.8766C97.507 18.9482 97.5138 19.0244 97.5031 19.0991C97.5031 19.9791 96.2201 22.8381 96.2201 25.6991C96.1975 25.8804 96.2123 26.0645 96.2636 26.2399C96.3149 26.4153 96.4016 26.5783 96.5184 26.7188C96.6352 26.8594 96.7795 26.9746 96.9425 27.0572C97.1055 27.1398 97.2837 27.1881 97.4661 27.1991C98.0891 27.1991 98.3821 26.9061 98.8591 26.4291C99.1161 26.1721 99.2591 26.0621 99.4821 26.0621C99.6175 26.0644 99.7466 26.1192 99.8423 26.2149C99.938 26.3106 99.9928 26.4398 99.9951 26.5751C99.9397 27.0216 99.7329 27.4356 99.4091 27.7481C98.8676 28.4783 98.1669 29.0756 97.3602 29.4947C96.5535 29.9138 95.6619 30.1438 94.7531 30.1671M91.1611 20.1621C89.0721 20.1621 88.1551 24.0111 88.1551 26.0271C88.1551 26.9801 88.5951 27.7501 89.4011 27.7501C90.1011 27.7501 90.8311 27.1271 91.3071 26.0271C91.8805 24.4887 92.2023 22.8679 92.2601 21.2271C92.2776 21.08 92.2608 20.931 92.2111 20.7915C92.1614 20.652 92.0801 20.5258 91.9736 20.4229C91.8671 20.32 91.7383 20.2431 91.5972 20.1982C91.4561 20.1533 91.3065 20.1416 91.1601 20.1641" fill="#00B4D2"/>
    <path d="M106.922 27.3461C106.922 25.1101 108.095 23.6461 108.095 22.2141C108.095 21.6281 107.765 21.188 107.252 21.188C106.629 21.188 105.752 21.811 104.943 23.424C104.108 25.2567 103.575 27.2128 103.367 29.216C103.367 29.839 103.11 29.9861 102.56 29.9861C101.46 29.9861 100.031 30.1691 99.4809 30.1691C99.0039 30.1691 98.7109 29.9861 98.7109 29.3631C98.7109 28.0071 100.25 23.063 100.25 21.079C100.25 20.456 99.993 20.3791 99.993 19.9061C99.993 19.0991 101.973 18.55 104.099 18.55C104.905 18.55 105.345 18.8801 105.345 19.5031C105.302 20.061 105.203 20.6133 105.052 21.1521C105.712 20.3461 107.875 18.552 110.037 18.552C112.053 18.552 112.86 19.4681 112.86 20.8621C112.86 22.5481 111.834 24.381 111.834 25.884C111.834 26.837 112.347 27.204 113.007 27.204C113.63 27.204 113.924 26.9111 114.4 26.4341C114.657 26.1771 114.8 26.067 115.023 26.067C115.158 26.0694 115.288 26.1243 115.383 26.2202C115.479 26.3161 115.534 26.4455 115.536 26.581C115.481 27.0276 115.274 27.4416 114.95 27.7541C114.409 28.4842 113.708 29.0814 112.901 29.5005C112.095 29.9197 111.204 30.1497 110.295 30.173C108.206 30.173 106.923 28.9271 106.923 27.3501" fill="#00B4D2"/>
    <path d="M129.906 26.4309C130.163 26.1739 130.306 26.0639 130.529 26.0639C130.664 26.0663 130.793 26.121 130.889 26.2168C130.985 26.3125 131.04 26.4416 131.042 26.5769C130.987 27.0235 130.78 27.4375 130.456 27.7499C129.915 28.4801 129.214 29.0773 128.408 29.4964C127.601 29.9156 126.71 30.1455 125.801 30.1689C125.194 30.1957 124.593 30.0338 124.081 29.7057C123.569 29.3775 123.171 28.8991 122.942 28.3359C121.687 29.4583 120.079 30.1067 118.397 30.1689C115.831 30.1689 114.438 28.6299 114.438 25.9169C114.438 21.7749 117.297 18.5489 121.403 18.5489C122.333 18.5312 123.253 18.7453 124.079 19.1719C124.684 17.1705 125.041 15.1024 125.142 13.0139C125.142 11.8039 124.519 11.2139 123.749 11.2139C123.382 11.2139 123.199 11.0673 123.199 10.7739C123.199 10.0039 125.142 8.79395 127.231 8.79395C129.137 8.79395 130.347 9.81995 130.347 11.6529C130.347 14.9149 127.268 21.2529 127.268 25.6919C127.245 25.8733 127.26 26.0574 127.311 26.2329C127.362 26.4083 127.449 26.5714 127.566 26.712C127.683 26.8526 127.827 26.9677 127.99 27.0503C128.153 27.1328 128.332 27.1811 128.514 27.1919C129.137 27.1919 129.431 26.8989 129.907 26.4219M122.134 20.1619C120.081 20.1619 119.234 24.2669 119.234 26.2839C119.234 27.2009 119.601 27.7839 120.407 27.7839C121.107 27.7839 121.837 27.1609 122.313 26.0249C122.89 24.4859 123.224 22.8666 123.303 21.2249C123.303 20.5649 122.903 20.1619 122.13 20.1619" fill="#00B4D2"/>
    <path d="M141.891 25.9541C142.093 25.7282 142.363 25.5739 142.661 25.5141C142.719 25.5117 142.778 25.5214 142.832 25.5427C142.887 25.564 142.936 25.5963 142.977 25.6376C143.019 25.679 143.051 25.7285 143.072 25.7829C143.094 25.8374 143.103 25.8957 143.101 25.9541C143.101 26.3211 142.918 26.6141 142.368 27.2001C141.577 28.1747 140.576 28.9579 139.44 29.4911C138.304 30.0243 137.062 30.2937 135.807 30.2791C132.361 30.2791 129.942 28.7391 129.942 25.2201C129.942 21.6641 132.801 18.4751 137.676 18.4751C140.169 18.4751 141.305 19.5751 141.305 21.1511C141.305 23.2411 138.849 25.2571 135.184 25.5511C135.184 26.8341 136.174 27.8241 137.933 27.8241C139.436 27.7033 140.843 27.0388 141.892 25.9551M138.63 20.8961C138.643 20.7789 138.629 20.6604 138.589 20.5496C138.549 20.4387 138.483 20.3387 138.398 20.2571C138.313 20.1756 138.21 20.1148 138.098 20.0794C137.985 20.044 137.866 20.035 137.75 20.0531C136.65 20.0531 135.184 21.8531 135.184 24.0121C137.273 23.6121 138.63 21.7761 138.63 20.8961Z" fill="#00B4D2"/>
    <path d="M146.143 29.216C146.143 29.839 145.886 29.9861 145.336 29.9861C144.236 29.9861 142.807 30.1691 142.257 30.1691C141.78 30.1691 141.487 29.9861 141.487 29.3631C141.487 28.0071 143.027 23.063 143.027 21.079C143.027 20.456 142.77 20.3791 142.77 19.9061C142.77 19.1001 144.749 18.55 146.876 18.55C147.682 18.55 148.122 18.8801 148.122 19.5031C148.102 19.9864 148.028 20.466 147.902 20.9331C148.19 20.3053 148.641 19.7665 149.208 19.3731C149.776 18.9797 150.439 18.7462 151.128 18.6971C151.357 18.6791 151.587 18.7116 151.803 18.7924C152.018 18.8732 152.213 19.0002 152.374 19.1645C152.534 19.3288 152.657 19.5264 152.733 19.7434C152.809 19.9603 152.837 20.1913 152.814 20.4201C152.814 21.7761 151.934 23.3201 150.431 23.3201C150.237 23.3351 150.042 23.3104 149.858 23.2476C149.674 23.1848 149.505 23.0852 149.361 22.9548C149.217 22.8245 149.101 22.6661 149.02 22.4894C148.939 22.3127 148.895 22.1213 148.891 21.927C148.671 22 148.191 22.4771 147.645 23.5031C146.818 25.3078 146.31 27.2426 146.145 29.2211" fill="#00B4D2"/>
    <path d="M152.631 26.721C152.631 23.385 155.454 18.693 155.454 13.012C155.454 11.802 154.831 11.212 154.024 11.212C153.694 11.212 153.511 11.065 153.511 10.772C153.511 10.002 155.454 8.79199 157.543 8.79199C159.449 8.79199 160.659 9.81799 160.659 11.651C160.659 14.73 157.726 22.171 157.726 25.69C157.726 26.643 158.239 27.19 158.899 27.19C159.522 27.19 159.816 26.897 160.292 26.42C160.549 26.163 160.692 26.053 160.915 26.053C161.05 26.0553 161.179 26.1101 161.275 26.2058C161.371 26.3015 161.426 26.4307 161.428 26.566C161.372 27.0125 161.166 27.4265 160.842 27.739C160.308 28.4688 159.614 29.0663 158.814 29.4857C158.013 29.9051 157.126 30.1351 156.223 30.158C155.751 30.2082 155.275 30.1548 154.826 30.0015C154.377 29.8482 153.967 29.5987 153.625 29.2705C153.283 28.9422 153.017 28.5432 152.845 28.1012C152.673 27.6593 152.6 27.1851 152.631 26.712" fill="#00B4D2"/>
    <path d="M161.721 19.9021C161.721 19.0961 163.7 18.5461 165.79 18.5461C166.633 18.5461 167.036 18.8761 167.036 19.4991C167.036 21.1121 165.753 23.8241 165.753 26.0991C165.737 26.237 165.75 26.3767 165.789 26.5096C165.829 26.6425 165.896 26.7659 165.985 26.8722C166.074 26.9785 166.184 27.0655 166.308 27.1279C166.432 27.1903 166.568 27.2268 166.706 27.2351C167.181 27.1664 167.635 26.9925 168.035 26.7261C168.434 26.4596 168.769 26.1074 169.015 25.6951C169.737 24.2637 170.101 22.679 170.078 21.0761C170.078 20.4531 169.821 20.3761 169.821 19.9031C169.821 19.0971 171.801 18.5471 173.89 18.5471C174.733 18.5471 175.136 18.8771 175.136 19.5001C175.136 20.4171 174.736 20.8201 173.706 26.8311C172.753 32.4391 171.58 40.5401 164.945 40.5401C162.269 40.5401 159.96 39.0001 159.96 36.4341C159.901 35.4749 160.192 34.5269 160.778 33.7654C161.364 33.0039 162.207 32.4806 163.149 32.2921C163.405 32.2921 163.549 32.4021 163.549 32.6221C163.549 32.9891 163.219 33.1721 163.219 33.9781C163.219 35.0411 164.062 35.7011 165.308 35.7011C167.984 35.7011 168.937 31.5591 169.487 27.9671C167.993 29.4079 165.99 30.1989 163.915 30.1671C163.52 30.2001 163.123 30.1521 162.747 30.0263C162.372 29.9004 162.026 29.6992 161.731 29.4351C161.436 29.1709 161.198 28.8493 161.031 28.49C160.864 28.1306 160.773 27.7411 160.762 27.3451C160.762 24.8891 161.972 22.3971 161.972 21.0771C161.972 20.4541 161.716 20.3771 161.716 19.9041" fill="#00B4D2"/>
    <path d="M10.3409 35.3809C10.3409 35.3809 10.3409 35.3809 10.3339 35.3809C6.96743 33.7251 4.18392 31.0849 2.35266 27.8105C0.521397 24.5361 -0.271067 20.7824 0.0803975 17.0472C0.431862 13.312 1.91064 9.77197 4.32056 6.89667C6.73049 4.02137 9.95765 1.94672 13.5739 0.947939C14.1079 0.76109 14.6645 0.646737 15.2289 0.607939H15.2359C15.3209 0.607939 15.4029 0.561939 15.4849 0.559939C15.8627 0.545647 16.24 0.597425 16.5999 0.712939C17.3526 0.972635 18.0103 1.45193 18.488 2.08898C18.9657 2.72603 19.2415 3.49161 19.2799 4.28694C19.6039 16.8919 7.62693 23.7869 10.3429 35.3799" fill="#F7C131"/>
    <path d="M37.042 18.763C37.0428 22.146 36.1168 25.4645 34.3646 28.3584C32.6124 31.2522 30.101 33.6108 27.103 35.178C25.1751 33.1822 24.0517 30.545 23.948 27.772C23.525 22.796 28 12.122 25.248 5.02303C24.5499 3.0708 23.1558 1.44491 21.333 0.457031C25.7063 1.12902 29.6946 3.34438 32.5761 6.70219C35.4575 10.06 37.0417 14.3384 37.042 18.763Z" fill="#F98732"/>
    <path d="M19.2777 4.27807C19.239 3.48176 18.9631 2.71521 18.4856 2.07679C18.0081 1.43838 17.3506 0.957217 16.5977 0.695068C17.3494 0.95868 18.0054 1.44034 18.4821 2.07853C18.9587 2.71673 19.2343 3.4825 19.2737 4.27807C19.5957 16.8781 7.62073 23.7841 10.3347 35.3781C10.3347 35.3781 10.3347 35.3781 10.3417 35.3781C7.62573 23.7841 19.6027 16.8781 19.2777 4.27807Z" fill="white"/>
  </g>
</svg>