<?xml version="1.0" encoding="iso-8859-1"?>
<!-- Uploaded to: SVG Repo, www.svgrepo.com, Generator: SVG Repo Mixer Tools -->
<svg height="800px" width="800px" version="1.1" id="Layer_1" xmlns="http://www.w3.org/2000/svg" xmlns:xlink="http://www.w3.org/1999/xlink" 
	 viewBox="0 0 512.001 512.001" xml:space="preserve">
<circle style="fill:#7F8499;" cx="338.616" cy="173.396" r="165.231"/>
<circle style="fill:#F1F4FB;" cx="338.616" cy="173.396" r="130.446"/>
<path style="fill:#E4EAF8;" d="M370.658,223.635c-41.292-7.933-74.351-40.993-82.284-82.284c-2.81-14.626-2.461-28.773,0.399-41.989
	c1.72-7.943-7.603-13.377-14.028-8.401c-28.532,22.1-45.307,58.621-39.254,98.686c6.707,44.395,42.474,80.163,86.869,86.872
	c40.065,6.054,76.588-10.722,98.688-39.254c4.977-6.426-0.457-15.748-8.401-14.028C399.431,226.096,385.284,226.445,370.658,223.635
	z"/>
<path style="fill:#9B735A;" d="M193.324,355.58L52.69,496.215c-10.189,10.189-26.708,10.189-36.896,0l0,0
	c-10.189-10.189-10.189-26.708,0-36.896L156.43,318.685c3.396-3.396,8.903-3.396,12.299,0l24.597,24.597
	C196.72,346.678,196.72,352.184,193.324,355.58z"/>
<path style="fill:#8C5F50;" d="M33.187,476.712l140.635-140.635c3.397-3.396,8.902-3.396,12.299,0l-17.393-17.393
	c-3.397-3.396-8.902-3.396-12.299,0L15.794,459.319c-10.189,10.189-10.189,26.707,0,36.896c3.163,3.163,6.965,5.225,10.969,6.424
	C24.1,493.745,26.161,483.738,33.187,476.712z"/>
<path style="fill:#FFFFFF;" d="M430.676,156.043c-3.787,0-7.278-2.506-8.365-6.335c-8.135-28.849-31.117-51.839-59.966-60.008
	c-4.62-1.308-7.304-6.115-5.996-10.735c1.299-4.629,6.14-7.338,10.735-5.996c34.625,9.801,62.2,37.392,71.975,72.017
	c1.299,4.62-1.393,9.427-6.012,10.735C432.255,155.942,431.465,156.043,430.676,156.043z"/>
<path style="fill:#D5DCED;" d="M286.437,129.911l17.153,57.177c2.207,7.357,8.979,12.395,16.659,12.395h56.631
	c9.605,0,17.393-7.788,17.393-17.393v-52.178L286.437,129.911L286.437,129.911z"/>
<path style="fill:#E4EAF8;" d="M368.183,129.911v52.178c0,9.605-7.788,17.393-17.393,17.393h26.089
	c9.605,0,17.393-7.788,17.393-17.393v-52.178H368.183z"/>
<path d="M404.02,129.911c0-4.503-3.65-8.153-8.153-8.153h-101.77l-1.615-5.385c-2.155-7.182-8.64-12.008-16.138-12.008h-10.923
	c-4.503,0-8.153,3.65-8.153,8.153s3.65,8.153,8.153,8.153h10.923c0.241,0,0.451,0.155,0.521,0.387l20.512,68.371
	c3.267,10.889,13.1,18.205,24.468,18.205h56.631c14.086,0,25.546-11.46,25.546-25.546v-52.177H404.02z M387.714,182.089
	c0,5.095-4.145,9.24-9.24,9.24h-56.631c-4.112,0-7.669-2.646-8.851-6.585l-14.003-46.68h88.725V182.089z"/>
<path d="M283.358,234.268c0,9.291,7.558,16.849,16.849,16.849c9.291,0,16.849-7.558,16.849-16.849
	c0-9.291-7.558-16.849-16.849-16.849C290.916,217.419,283.358,224.977,283.358,234.268z"/>
<path d="M370.322,234.268c0,9.291,7.558,16.849,16.849,16.849c9.291,0,16.849-7.558,16.849-16.849
	c0-9.291-7.558-16.849-16.849-16.849C377.88,217.419,370.322,224.977,370.322,234.268z"/>
<path d="M338.616,0.009c-95.605,0-173.384,77.779-173.384,173.384c0,44.876,17.138,85.822,45.211,116.644l-29.417,29.417
	l-6.534-6.534c-6.569-6.568-17.258-6.568-23.828,0L10.029,453.554C3.561,460.022,0,468.62,0,477.767s3.561,17.745,10.029,24.213
	c6.676,6.676,15.445,10.013,24.213,10.013s17.537-3.337,24.213-10.013L199.09,361.345l0,0c6.568-6.569,6.568-17.258,0-23.828
	l-6.533-6.533l29.417-29.417c30.821,28.073,71.768,45.211,116.644,45.211c95.605,0,173.384-77.779,173.384-173.384
	S434.221,0.009,338.616,0.009z M187.559,349.817L46.925,490.45c-6.994,6.993-18.372,6.992-25.366,0
	c-3.387-3.388-5.254-7.892-5.254-12.683c0-4.791,1.865-9.295,5.254-12.683l140.634-140.634c0.107-0.107,0.246-0.159,0.385-0.159
	s0.278,0.053,0.385,0.159l24.597,24.597C187.771,349.259,187.771,349.604,187.559,349.817z M338.616,330.472
	c-86.614,0-157.079-70.465-157.079-157.079S252.002,16.314,338.616,16.314S495.694,86.78,495.694,173.393
	S425.23,330.472,338.616,330.472z"/>
<path d="M448.82,89.317c-2.736-3.577-7.852-4.258-11.429-1.523c-3.576,2.736-4.258,7.853-1.523,11.429
	c37.026,48.413,32.393,117.475-10.778,160.645c-43.172,43.172-112.238,47.804-160.651,10.774c-3.576-2.736-8.694-2.055-11.429,1.522
	c-2.736,3.576-2.055,8.694,1.522,11.429c24.813,18.979,54.407,28.305,83.913,28.305c35.751,0,71.369-13.695,98.175-40.499
	C485.546,222.472,490.791,144.194,448.82,89.317z"/>
<path d="M252.142,86.919c43.17-43.171,112.233-47.804,160.645-10.778c3.577,2.736,8.693,2.053,11.429-1.523
	c2.735-3.576,2.053-8.693-1.523-11.429c-54.877-41.97-133.156-36.726-182.081,12.2c-48.928,48.928-54.171,127.208-12.196,182.086
	c1.606,2.098,4.03,3.2,6.481,3.2c1.727,0,3.469-0.547,4.947-1.677c3.576-2.735,4.258-7.853,1.522-11.429
	C204.338,199.156,208.97,130.092,252.142,86.919z"/>
</svg>